<svg width="24" height="24" xmlns="http://www.w3.org/2000/svg"><path d="M19.934 6.6a4.236 4.236 0 001.786-2.355 7.899 7.899 0 01-2.58 1.032 3.968 3.968 0 00-2.965-1.344c-2.242 0-4.061 1.907-4.061 4.258 0 .334.035.658.104.97C8.842 8.983 5.85 7.29 3.845 4.71a4.41 4.41 0 00-.55 2.142c0 1.477.717 2.78 1.807 3.544a3.923 3.923 0 01-1.84-.53v.052c0 2.063 1.4 3.785 3.26 4.175a3.872 3.872 0 01-1.836.074c.518 1.69 2.017 2.922 3.795 2.955a7.914 7.914 0 01-6.014 1.766A11.135 11.135 0 008.694 20.8c7.472 0 11.557-6.487 11.557-12.114 0-.185-.003-.37-.01-.552a8.45 8.45 0 002.026-2.204 7.802 7.802 0 01-2.333.67z" fill="#FFF" fill-rule="evenodd"/></svg>