<svg xmlns="http://www.w3.org/2000/svg" width="20" height="20" viewBox="0 0 20 20">
    <g fill="none" fill-rule="evenodd">
        <g fill="#3A3A3A">
            <g>
                <g>
                    <g>
                        <g>
                            <g>
                                <path d="M7.5 0c.345 0 .625.28.625.625 0 .32-.241.585-.552.62L7.5 1.25H1.875c-.32 0-.585.241-.62.552l-.005.073v11.25c0 .32.241.585.552.62l.073.005H7.5c.345 0 .625.28.625.625 0 .32-.241.585-.552.62L7.5 15H1.875C.876 15 .06 14.22.003 13.235L0 13.125V1.875C0 .876.78.06 1.765.003L1.875 0H7.5zm3.508 3.256l.059.052 3.75 3.75c.022.022.042.046.06.07l.045.07.033.07.023.066.018.092L15 7.5l-.002.047-.01.078-.02.07-.027.07-.032.06-.046.066-.046.05-3.75 3.75c-.244.245-.64.245-.884 0-.225-.224-.243-.579-.052-.824l.052-.059 2.683-2.683H5.625C5.28 8.125 5 7.845 5 7.5c0-.32.241-.585.552-.62l.073-.005h7.24l-2.682-2.683c-.225-.225-.243-.58-.052-.825l.052-.059c.225-.225.58-.243.825-.052z" transform="translate(-1380 -5066) translate(1356 4535) translate(1 423) translate(0 98) translate(23 10) translate(2.5 2.5)"/>
                            </g>
                        </g>
                    </g>
                </g>
            </g>
        </g>
    </g>
</svg>
